PathFileType	4	(x/y/z)	S10_P20_T25
DataRate	CameraRate	NumFrames	NumMarkers	Units	OrigDataRate	OrigDataStartFrame	OrigNumFrames
240	240	10	51	mm	240	50	396
Frame#	Time	Sternum			R.Acromium			L.Acromium			Top.Head			R.ASIS			L.ASIS			R.PSIS			L.PSIS			R.Great.Tro			L.Great.Tro			R.Iliac.Crest			L.Iliac.Crest			V.Sacral			R.Thigh.Upper.Post			R.Thigh.Lower.Ant			R.Thigh.Lower.Post			R.Thigh.Upper.Ant			R.Knee.Lat			R.Knee.Med			R.Shank.Upper.Post			R.Shank.Lower.Ant			R.Shank.Lower.Post			R.Shank.Upper.Ant			R.Ankle.Lat			R.Ankle.Med			R.Heel.Upper			R.Heel.Med			R.Heel.Lat			R.Toe.Lat			R.Toe.Med			R.Toe.Tip			L.Thigh.Upper.Post			L.Thigh.Lower.Ant			L.Thigh.Lower.Post			L.Thigh.Upper.Ant			L.Knee.Lat			L.Knee.Med			L.Shank.Upper.Post			L.Shank.Lower.Ant			L.Shank.Lower.Post			L.Shank.Upper.Ant			L.Ankle.Lat			L.Ankle.Med			L.Heel.Upper			L.Heel.Med			L.Heel.Lat			L.Toe.Lat			L.Toe.Med			L.Toe.Tip			Cervical.Spine			Back			
		X1	Y1	Z1	X2	Y2	Z2	X3	Y3	Z3	X4	Y4	Z4	X5	Y5	Z5	X6	Y6	Z6	X7	Y7	Z7	X8	Y8	Z8	X9	Y9	Z9	X10	Y10	Z10	X11	Y11	Z11	X12	Y12	Z12	X13	Y13	Z13	X14	Y14	Z14	X15	Y15	Z15	X16	Y16	Z16	X17	Y17	Z17	X18	Y18	Z18	X19	Y19	Z19	X20	Y20	Z20	X21	Y21	Z21	X22	Y22	Z22	X23	Y23	Z23	X24	Y24	Z24	X25	Y25	Z25	X26	Y26	Z26	X27	Y27	Z27	X28	Y28	Z28	X29	Y29	Z29	X30	Y30	Z30	X31	Y31	Z31	X32	Y32	Z32	X33	Y33	Z33	X34	Y34	Z34	X35	Y35	Z35	X36	Y36	Z36	X37	Y37	Z37	X38	Y38	Z38	X39	Y39	Z39	X40	Y40	Z40	X41	Y41	Z41	X42	Y42	Z42	X43	Y43	Z43	X44	Y44	Z44	X45	Y45	Z45	X46	Y46	Z46	X47	Y47	Z47	X48	Y48	Z48	X49	Y49	Z49	X50	Y50	Z50	X51	Y51	Z51	

50	0.20417	-1033.5	1282.7	295.48	-1160.7	1433.8	450.64	-1166.6	1462.9	151.09	-1184.2	1752.1	329.61	-1085.3	1002.5	406.05	-1083.2	1033.4	177.78	-1290.5	1022.5	318.39	-1284.8	1035.9	238.23	-1158.7	917.19	474.25	-1137.8	973.86	116.08	-1187.5	1080.6	451.99	-1160.2	1106.3	152.75	-1307.8	993.51	278.6	-1119.7	709.68	479.94	-1048.2	639.23	450.31	-1112.1	620.39	473.38	-1053.4	731.02	452.19	-1106.4	495.68	443.6	-1079.1	492.3	312.61	-1303.4	396.88	431.55	-1312.2	306.63	422.46	-1362.6	349.96	424.09	-1247.6	350.14	430.62	-1432.3	266.4	405.9	-1410.3	264.01	325.49	-1489.4	297.72	351.7	-1503.3	282.07	323.35	-1504.5	287.87	382.6	-1469.1	119.86	429.08	NaN	NaN	NaN	NaN	NaN	NaN	-1129.8	685.67	124.99	-1044.8	620.12	156.57	-1115.5	593.71	150.31	-1039.5	711.89	122.93	-1068.9	515.27	167.63	-1065.3	520.28	296.78	-1131.6	303.31	165.83	-1069.9	213.94	189.21	-1133.1	224.8	177.64	-1069.8	290.43	176.72	-1110.6	106.7	192.41	-1099.7	116.06	280.01	-1178.9	75.473	236.64	-1170.3	44.203	269.6	-1172.1	46.97	204.95	-993.64	42.038	174.22	-972.58	46.973	285.44	-914.44	59.635	238.24	-1242.9	1494.1	313.99	-1327.2	1284.5	301.55
51	0.20833	-1028.1	1283	296.02	-1156.1	1434.2	450.58	-1160.3	1463.6	151.02	-1178.7	1752.7	329.53	-1080.4	1003.1	405.94	-1077.6	1033.9	177.66	-1285.2	1023	317.57	-1279.3	1036.5	237.44	-1153.8	917.92	474.07	-1132.3	974.19	115.84	-1182.6	1081.1	451.55	-1154.3	1106.9	152.42	-1302.6	994.08	277.71	-1111.8	710.98	480.18	-1039.6	641.28	450.59	-1103.1	621.8	473.87	-1046	733.07	452.44	-1095.6	497.24	443.92	-1068.4	494.16	312.69	-1292.2	398.04	431.56	-1301	307.76	422.44	-1351.5	351.04	424.06	-1236.5	351.41	430.71	-1420.8	267.28	405.6	-1398.8	264.86	325.37	-1479.2	297.23	351.16	-1492.3	281.53	322.93	-1493.1	287.91	382.2	-1455.8	120.82	429.64	NaN	NaN	NaN	NaN	NaN	NaN	-1126.6	686.06	124.9	-1042	619.88	156.29	-1112.9	594	150.16	-1035.9	711.73	122.54	-1066.8	515.19	167.45	-1063.1	520.19	296.68	-1130.2	303.53	165.68	-1069.5	213.65	189.38	-1132.1	225.04	177.49	-1068.8	290.26	176.66	-1110.4	106.78	192.42	-1099.4	116.17	280.04	-1178.9	75.597	236.63	-1170.3	44.297	269.6	-1172	47.082	204.94	-993.59	42.02	174.19	-972.57	46.798	285.52	-914.35	59.391	238.25	-1237.5	1494.7	313.5	-1321.9	1285.2	300.47
52	0.2125	-1022.8	1283.4	296.57	-1151.6	1434.6	450.53	-1154	1464.2	150.97	-1173.2	1753.3	329.47	-1075.5	1003.8	405.84	-1071.9	1034.5	177.54	-1280	1023.5	316.76	-1273.9	1037	236.65	-1149	918.72	473.92	-1126.9	974.5	115.59	-1177.8	1081.7	451.1	-1148.3	1107.5	152.1	-1297.3	994.66	276.84	-1104	712.34	480.4	-1031	643.4	450.84	-1094.2	623.28	474.35	-1038.6	735.18	452.65	-1085	498.87	444.2	-1058	496.11	312.73	-1280.9	399.03	431.54	-1289.6	308.71	422.37	-1340.2	351.85	423.99	-1225.3	352.62	430.74	-1409.2	267.87	405.26	-1387.2	265.42	325.22	-1468.8	296.49	350.61	-1481.3	280.54	322.48	-1481.6	287.49	381.78	-1442.1	121.47	430.22	NaN	NaN	NaN	NaN	NaN	NaN	-1123.3	686.46	124.84	-1039.2	619.65	156.02	-1110.4	594.31	150.05	-1032.5	711.52	122.26	-1064.7	515.12	167.3	-1060.9	520.11	296.59	-1129	303.77	165.57	-1069	213.37	189.56	-1131.1	225.32	177.35	-1067.8	290.11	176.61	-1110.1	106.87	192.44	-1099.2	116.29	280.08	-1178.8	75.729	236.64	-1170.2	44.393	269.61	-1172	47.2	204.94	-993.54	42.002	174.17	-972.55	46.621	285.59	-914.26	59.141	238.26	-1232	1495.3	313.03	-1316.6	1285.8	299.4
53	0.21667	-1017.4	1283.8	297.14	-1147.1	1435	450.49	-1147.8	1464.8	150.94	-1167.7	1753.9	329.43	-1070.6	1004.5	405.75	-1066.1	1035	177.42	-1274.8	1024.1	315.95	-1268.5	1037.6	235.86	-1144.1	919.58	473.79	-1121.4	974.8	115.35	-1172.9	1082.3	450.65	-1142.4	1108	151.8	-1292.1	995.28	275.97	-1096.2	713.76	480.6	-1022.5	645.6	451.06	-1085.4	624.83	474.79	-1031.3	737.33	452.8	-1074.4	500.57	444.44	-1047.7	498.12	312.74	-1269.8	399.86	431.47	-1278.1	309.46	422.26	-1328.8	352.39	423.89	-1214.1	353.76	430.73	-1397.4	268.16	404.89	-1375.5	265.71	325.04	-1458	295.47	350.04	-1470.2	279.12	322	-1470.2	286.6	381.36	-1428	121.81	430.82	NaN	NaN	NaN	NaN	NaN	NaN	-1120.2	686.88	124.81	-1036.4	619.45	155.77	-1107.8	594.64	149.96	-1029.2	711.27	122.11	-1062.6	515.07	167.15	-1058.8	520.03	296.5	-1127.7	304.01	165.49	-1068.6	213.12	189.74	-1130.2	225.61	177.23	-1066.8	289.99	176.56	-1109.9	106.99	192.46	-1098.9	116.41	280.13	-1178.7	75.869	236.65	-1170.2	44.493	269.62	-1171.9	47.326	204.95	-993.49	41.984	174.15	-972.53	46.445	285.67	-914.16	58.886	238.27	-1226.6	1496	312.58	-1311.3	1286.5	298.34
54	0.22083	-1012.1	1284.3	297.72	-1142.6	1435.4	450.46	-1141.5	1465.5	150.93	-1162.1	1754.5	329.39	-1065.7	1005.3	405.65	-1060.4	1035.5	177.29	-1269.6	1024.7	315.15	-1263.1	1038.2	235.08	-1139.3	920.51	473.68	-1116	975.09	115.1	-1168.1	1082.9	450.2	-1136.5	1108.6	151.5	-1286.8	995.92	275.13	-1088.5	715.23	480.76	-1014.1	647.86	451.26	-1076.6	626.45	475.21	-1024	739.52	452.91	-1063.9	502.34	444.64	-1037.6	500.2	312.72	-1258.6	400.51	431.37	-1266.5	310.02	422.1	-1317.3	352.66	423.77	-1202.8	354.81	430.68	-1385.4	268.13	404.49	-1363.6	265.7	324.84	-1446.9	294.15	349.46	-1459	277.28	321.5	-1458.7	285.25	380.93	-1413.5	121.86	431.43	NaN	NaN	NaN	NaN	NaN	NaN	-1117	687.3	124.81	-1033.7	619.26	155.54	-1105.3	594.98	149.91	-1026.1	710.98	122.07	-1060.6	515.03	167.02	-1056.7	519.96	296.42	-1126.6	304.27	165.43	-1068.2	212.9	189.91	-1129.2	225.93	177.12	-1065.8	289.89	176.52	-1109.7	107.12	192.49	-1098.7	116.54	280.19	-1178.7	76.016	236.67	-1170.2	44.597	269.64	-1171.9	47.458	204.96	-993.44	41.967	174.14	-972.5	46.271	285.73	-914.06	58.627	238.28	-1221.2	1496.6	312.14	-1306	1287.2	297.28
55	0.225	-1006.8	1284.7	298.3	-1138.1	1435.8	450.44	-1135.3	1466.2	150.93	-1156.6	1755.1	329.38	-1060.8	1006.1	405.56	-1054.6	1036	177.16	-1264.4	1025.3	314.36	-1257.7	1038.8	234.31	-1134.5	921.5	473.59	-1110.6	975.37	114.86	-1163.2	1083.7	449.75	-1130.7	1109.2	151.2	-1281.6	996.58	274.31	-1080.8	716.74	480.9	-1005.8	650.19	451.43	-1067.8	628.12	475.6	-1016.7	741.74	452.98	-1053.5	504.16	444.8	-1027.6	502.31	312.67	-1247.5	400.99	431.23	-1254.8	310.38	421.91	-1305.7	352.64	423.62	-1191.5	355.77	430.59	-1373.2	267.78	404.08	-1351.6	265.39	324.63	-1435.6	292.52	348.87	-1447.6	275.04	320.98	-1447.3	283.44	380.5	-1398.7	121.62	432.05	NaN	NaN	NaN	NaN	NaN	NaN	-1113.9	687.74	124.84	-1031	619.09	155.32	-1102.9	595.34	149.89	-1023.2	710.66	122.14	-1058.6	515	166.89	-1054.7	519.88	296.33	-1125.4	304.54	165.4	-1067.8	212.73	190.06	-1128.3	226.26	177.03	-1064.9	289.83	176.47	-1109.6	107.28	192.53	-1098.4	116.68	280.26	-1178.6	76.17	236.7	-1170.1	44.706	269.66	-1171.8	47.596	204.98	-993.39	41.95	174.13	-972.46	46.102	285.79	-913.96	58.365	238.29	-1215.8	1497.3	311.71	-1300.7	1287.9	296.22
56	0.22917	-1001.5	1285.2	298.88	-1133.6	1436.2	450.43	-1129.1	1466.9	150.95	-1151.1	1755.8	329.37	-1055.9	1007	405.47	-1048.9	1036.5	177.03	-1259.2	1026	313.58	-1252.3	1039.4	233.56	-1129.7	922.54	473.51	-1105.2	975.65	114.62	-1158.4	1084.4	449.29	-1124.9	1109.8	150.91	-1276.4	997.27	273.51	-1073.1	718.29	481	-997.48	652.57	451.56	-1059.1	629.84	475.97	-1009.5	744	452.99	-1043.2	506.02	444.91	-1017.8	504.46	312.59	-1236.5	401.28	431.07	-1242.9	310.54	421.68	-1294	352.36	423.46	-1180.2	356.63	430.46	-1360.9	267.12	403.65	-1339.5	264.8	324.41	-1424.1	290.57	348.26	-1436	272.41	320.44	-1435.9	281.18	380.07	-1383.6	121.09	432.67	NaN	NaN	NaN	NaN	NaN	NaN	-1110.8	688.19	124.9	-1028.4	618.93	155.1	-1100.5	595.71	149.89	-1020.4	710.31	122.29	-1056.7	514.98	166.76	-1052.6	519.8	296.23	-1124.4	304.82	165.38	-1067.4	212.6	190.18	-1127.4	226.62	176.95	-1064	289.8	176.41	-1109.4	107.46	192.56	-1098.2	116.83	280.33	-1178.5	76.332	236.73	-1170.1	44.823	269.69	-1171.7	47.739	205	-993.35	41.935	174.12	-972.4	45.937	285.85	-913.85	58.099	238.3	-1210.4	1497.9	311.3	-1295.4	1288.6	295.17
57	0.23333	-996.16	1285.7	299.47	-1129.2	1436.7	450.43	-1122.9	1467.6	150.99	-1145.5	1756.4	329.38	-1051.1	1007.8	405.38	-1043.1	1037	176.89	-1254	1026.6	312.82	-1246.9	1040.1	232.82	-1125	923.62	473.45	-1099.9	975.91	114.39	-1153.6	1085.3	448.84	-1119.1	1110.4	150.62	-1271.2	997.98	272.73	-1065.5	719.88	481.07	-989.25	654.99	451.66	-1050.5	631.62	476.31	-1002.3	746.27	452.94	-1033	507.93	444.97	-1008.1	506.64	312.5	-1225.4	401.39	430.88	-1231	310.51	421.43	-1282.3	351.81	423.27	-1168.9	357.39	430.32	-1348.4	266.14	403.22	-1327.1	263.91	324.18	-1412.3	288.29	347.66	-1424.3	269.4	319.89	-1424.4	278.47	379.63	-1368.2	120.28	433.29	NaN	NaN	NaN	-1295.4	56.48	370.19	-1107.7	688.65	124.98	-1025.7	618.8	154.91	-1098	596.1	149.92	-1017.7	709.93	122.53	-1054.9	514.98	166.64	-1050.7	519.72	296.12	-1123.3	305.11	165.38	-1066.9	212.52	190.25	-1126.5	226.99	176.88	-1063.1	289.8	176.35	-1109.3	107.66	192.6	-1097.9	117	280.41	-1178.5	76.501	236.76	-1170.1	44.948	269.72	-1171.7	47.888	205.03	-993.3	41.919	174.12	-972.34	45.777	285.9	-913.74	57.831	238.31	-1205.1	1498.6	310.91	-1290.1	1289.3	294.11
58	0.2375	-990.88	1286.2	300.05	-1124.7	1437.1	450.43	-1116.7	1468.3	151.04	-1139.9	1757.1	329.4	-1046.2	1008.7	405.29	-1037.4	1037.4	176.75	-1248.8	1027.4	312.09	-1241.5	1040.7	232.1	-1120.2	924.74	473.39	-1094.6	976.17	114.17	-1148.8	1086.1	448.39	-1113.4	1111	150.33	-1266	998.71	271.99	-1057.9	721.5	481.12	-981.08	657.46	451.72	-1041.9	633.44	476.62	-995.1	748.56	452.85	-1022.9	509.86	445	-998.55	508.83	312.39	-1214.5	401.32	430.68	-1219	310.31	421.16	-1270.5	351.02	423.08	-1157.5	358.03	430.15	-1335.8	264.86	402.79	-1314.7	262.74	323.95	-1400.4	285.67	347.05	-1412.4	266.04	319.34	-1412.9	275.34	379.2	-1352.6	119.21	433.91	NaN	NaN	NaN	-1280.3	56.314	371.46	-1104.7	689.12	125.08	-1023.1	618.67	154.72	-1095.6	596.5	149.96	-1015.1	709.55	122.84	-1053.1	514.98	166.51	-1048.7	519.63	295.99	-1122.4	305.41	165.39	-1066.5	212.49	190.27	-1125.6	227.37	176.83	-1062.3	289.83	176.28	-1109.2	107.89	192.64	-1097.7	117.18	280.49	-1178.4	76.678	236.81	-1170	45.082	269.75	-1171.6	48.042	205.06	-993.25	41.903	174.11	-972.27	45.623	285.94	-913.63	57.562	238.32	-1199.7	1499.3	310.53	-1284.7	1290.1	293.06
59	0.24167	-985.62	1286.7	300.62	-1120.3	1437.6	450.43	-1110.6	1469.1	151.1	-1134.4	1757.7	329.43	-1041.4	1009.7	405.19	-1031.7	1037.9	176.62	-1243.7	1028.1	311.37	-1236.1	1041.4	231.41	-1115.5	925.9	473.34	-1089.3	976.43	113.95	-1144.1	1087	447.94	-1107.7	1111.5	150.04	-1260.7	999.45	271.28	-1050.3	723.15	481.13	-972.97	659.96	451.74	-1033.4	635.29	476.9	-987.96	750.86	452.7	-1013	511.81	444.98	-989.12	511.04	312.27	-1203.5	401.07	430.47	-1206.9	309.93	420.87	-1258.7	349.99	422.87	-1146.1	358.57	429.98	-1323	263.29	402.37	-1302.1	261.29	323.72	-1388.3	282.72	346.44	-1400.4	262.34	318.78	-1401.4	271.79	378.78	-1336.7	117.89	434.52	NaN	NaN	NaN	-1264.5	56.142	372.77	-1101.6	689.6	125.19	-1020.5	618.57	154.53	-1093.3	596.91	150.02	-1012.6	709.14	123.2	-1051.3	515	166.37	-1046.7	519.54	295.85	-1121.4	305.72	165.41	-1066	212.52	190.25	-1124.8	227.76	176.8	-1061.4	289.88	176.2	-1109.1	108.15	192.67	-1097.5	117.38	280.57	-1178.4	76.862	236.85	-1170	45.225	269.79	-1171.5	48.201	205.1	-993.2	41.886	174.11	-972.19	45.475	285.98	-913.51	57.292	238.32	-1194.4	1499.9	310.16	-1279.4	1290.8	292.01
